<mxfile host="app.diagrams.net" modified="2024-01-08T14:55:47.654Z" agent="Mozilla/5.0 (Windows NT 10.0; Win64; x64) AppleWebKit/537.36 (KHTML, like Gecko) Chrome/120.0.0.0 Safari/537.36" version="22.1.16" etag="idwarS8fsgkA6sJqcD9e" type="github">
  <diagram name="第 1 页" id="mDngwXMfCEGJJ4lD0a4v">
    <mxGraphModel>
      <root>
        <mxCell id="0" />
        <mxCell id="1" parent="0" />
      </root>
    </mxGraphModel>
  </diagram>
</mxfile>
